<?xml version="1.0" encoding="UTF-8" standalone="no"?>
<!-- Created with Inkscape (http://www.inkscape.org/) -->

<svg
   xmlns:dc="http://purl.org/dc/elements/1.1/"
   xmlns:cc="http://creativecommons.org/ns#"
   xmlns:rdf="http://www.w3.org/1999/02/22-rdf-syntax-ns#"
   xmlns:svg="http://www.w3.org/2000/svg"
   xmlns="http://www.w3.org/2000/svg"
   xmlns:sodipodi="http://sodipodi.sourceforge.net/DTD/sodipodi-0.dtd"
   xmlns:inkscape="http://www.inkscape.org/namespaces/inkscape"
   sodipodi:docname="fg_ae20125.svg"
   inkscape:version="0.48.3.1 r9886"
   version="1.1"
   id="svg2985"
   height="48px"
   width="48px">
  <sodipodi:namedview
     id="base"
     pagecolor="#ffffff"
     bordercolor="#666666"
     borderopacity="1.0"
     inkscape:pageopacity="0.0"
     inkscape:pageshadow="2"
     inkscape:zoom="1"
     inkscape:cx="-0.48343035"
     inkscape:cy="13.77531"
     inkscape:current-layer="svg2985"
     showgrid="true"
     inkscape:grid-bbox="true"
     inkscape:document-units="px"
     inkscape:window-width="1920"
     inkscape:window-height="994"
     inkscape:window-x="-5"
     inkscape:window-y="25"
     inkscape:window-maximized="1" />
  <defs
     id="defs2987" />
  <metadata
     id="metadata2990">
    <rdf:RDF>
      <cc:Work
         rdf:about="">
        <dc:format>image/svg+xml</dc:format>
        <dc:type
           rdf:resource="http://purl.org/dc/dcmitype/StillImage" />
        <dc:title />
      </cc:Work>
    </rdf:RDF>
  </metadata>
  <g
     sodipodi:insensitive="true"
     style="display:inline"
     inkscape:groupmode="layer"
     inkscape:label="Layer 1"
     id="layer1">
    <rect
       y="0.66666681"
       x="0.66666669"
       height="46.666668"
       width="46.666668"
       id="rect3055"
       style="fill:#112b00;fill-opacity:1;stroke:#000000;stroke-width:1;stroke-linecap:butt;stroke-linejoin:round;stroke-miterlimit:4;stroke-opacity:0.33478262;stroke-dasharray:none" />
  </g>
  <g
     style="display:inline"
     inkscape:label="Ebene"
     id="layer2"
     inkscape:groupmode="layer" />
  <path
     id="path6752"
     title="sin(x)*15"
     d="m 0.65054122,9.6350938 c 0.0155966,0 0.0311931,-0.1812137 0.0467897,-0.1813145 0.0155966,-1.009e-4 0.0311931,-0.1809993 0.0467896,-0.181201 0.0155966,-2.016e-4 0.0311931,-0.1806713 0.0467896,-0.1809739 0.0155966,-3.025e-4 0.0311931,-0.1802302 0.0467896,-0.1806336 0.0155966,-4.033e-4 0.0311931,-0.1796759 0.0467896,-0.1801801 0.0155966,-5.042e-4 0.0311931,-0.1790087 0.0467897,-0.1796138 0.0155966,-6.05e-4 0.0311931,-0.1782292 0.0467896,-0.178935 0.0155966,-7.059e-4 0.0311931,-0.1773376 0.0467896,-0.1781443 0.015597,-8.067e-4 0.031193,-0.1763343 0.046789,-0.1772418 0.015597,-9.076e-4 0.031193,-0.1752201 0.04679,-0.1762285 0.015596,-0.00101 0.031193,-0.1739955 0.04679,-0.1751048 0.015597,-0.00111 0.031193,-0.1726612 0.04679,-0.1738713 0.015597,-0.00122 0.031193,-0.1712182 0.04679,-0.1725292 0.015597,-0.00131 0.031193,-0.1696669 0.04679,-0.1710787 0.015597,-0.00141 0.031193,-0.1680087 0.04679,-0.1695214 0.015597,-0.00151 0.031193,-0.1662443 0.04679,-0.1678578 0.015596,-0.00161 0.031193,-0.1643747 0.04679,-0.166089 0.015597,-0.00171 0.031193,-0.1624012 0.04679,-0.1642164 0.015597,-0.00181 0.031193,-0.1603248 0.04679,-0.1622407 0.015597,-0.00191 0.031193,-0.1581468 0.04679,-0.1601636 0.015596,-0.00202 0.031193,-0.1558686 0.04679,-0.1579862 0.015597,-0.00212 0.031193,-0.1534913 0.04679,-0.1557097 0.015597,-0.00222 0.031193,-0.1510166 0.04679,-0.153336 0.015597,-0.00232 0.031193,-0.1484458 0.04679,-0.1508659 0.015597,-0.00242 0.031193,-0.1457806 0.04679,-0.1483016 0.015597,-0.00252 0.031193,-0.1430225 0.04679,-0.1456444 0.015596,-0.00262 0.031193,-0.140173 0.04679,-0.1428958 0.015596,-0.00272 0.031193,-0.1372343 0.04679,-0.1400579 0.015597,-0.00283 0.031193,-0.1342078 0.04679,-0.1371323 0.015597,-0.00293 0.031193,-0.1310955 0.04679,-0.1341207 0.015597,-0.00303 0.031193,-0.1278991 0.04679,-0.1310252 0.015597,-0.00313 0.031193,-0.1246207 0.04679,-0.1278476 0.015597,-0.00323 0.031193,-0.1212622 0.04679,-0.12459 0.015597,-0.00333 0.031193,-0.1178257 0.04679,-0.1212544 0.015597,-0.00343 0.031193,-0.1143133 0.04679,-0.1178427 0.015597,-0.00353 0.031193,-0.1107271 0.04679,-0.1143574 0.015597,-0.00364 0.031193,-0.1070692 0.04679,-0.1108004 0.015596,-0.00373 0.031193,-0.103342 0.04679,-0.107174 0.015596,-0.00383 0.031193,-0.099547 0.04679,-0.1034805 0.015597,-0.00393 0.031193,-0.095688 0.04679,-0.099723 0.015597,-0.00403 0.031193,-0.091767 0.04679,-0.095902 0.015597,-0.00413 0.031193,-0.087785 0.04679,-0.09202 0.015596,-0.00423 0.031193,-0.083746 0.04679,-0.088082 0.015597,-0.00433 0.031193,-0.079652 0.04679,-0.084089 0.015597,-0.00444 0.031193,-0.075505 0.04679,-0.080043 0.015597,-0.00454 0.031193,-0.071307 0.04679,-0.075946 0.015597,-0.00464 0.031193,-0.067062 0.04679,-0.071803 0.015597,-0.00474 0.031193,-0.062773 0.04679,-0.067613 0.015597,-0.00484 0.031193,-0.058441 0.04679,-0.063382 0.015597,-0.00494 0.031193,-0.054069 0.04679,-0.059111 0.015597,-0.00504 0.031193,-0.049661 0.04679,-0.054803 0.015597,-0.00514 0.031193,-0.045217 0.04679,-0.050461 0.015597,-0.00525 0.031193,-0.040742 0.04679,-0.046087 0.015597,-0.00535 0.031193,-0.036239 0.04679,-0.041684 0.015596,-0.00545 0.031193,-0.031709 0.04679,-0.037256 0.015597,-0.00555 0.031193,-0.027156 0.04679,-0.032803 0.015597,-0.00565 0.031193,-0.022582 0.04679,-0.028331 0.015597,-0.00575 0.031193,-0.017992 0.04679,-0.02384 0.015596,-0.00585 0.031193,-0.013385 0.04679,-0.019335 0.015597,-0.00595 0.031193,-0.00877 0.04679,-0.014817 0.015597,-0.00605 0.031193,-0.00414 0.04679,-0.010291 0.015597,-0.00615 0.031193,4.947e-4 0.04679,-0.00576 0.015597,-0.00625 0.031193,0.00513 0.04679,-0.00123 0.015597,-0.00635 0.031193,0.00977 0.04679,0.00332 0.015597,-0.00645 0.031193,0.014407 0.04679,0.00785 0.015597,-0.00655 0.031193,0.019038 0.04679,0.012383 0.015597,-0.00665 0.031193,0.023662 0.04679,0.016905 0.015597,-0.00675 0.031193,0.028275 0.04679,0.021418 0.015597,-0.00686 0.031193,0.032875 0.04679,0.025917 0.015597,-0.00696 0.031193,0.037458 0.04679,0.030399 0.015596,-0.00706 0.031193,0.042022 0.04679,0.034863 0.015596,-0.00716 0.031193,0.046565 0.04679,0.039304 0.015597,-0.00726 0.031193,0.051084 0.04679,0.043722 0.015597,-0.00736 0.031193,0.055574 0.04679,0.048111 0.015597,-0.00746 0.031193,0.060034 0.04679,0.052471 0.015597,-0.00756 0.031193,0.064462 0.04679,0.056798 0.015596,-0.00767 0.031193,0.068854 0.04679,0.061089 0.015597,-0.00777 0.031193,0.073207 0.04679,0.065342 0.015597,-0.00787 0.031193,0.07752 0.04679,0.069553 0.015597,-0.00797 0.031193,0.081789 0.04679,0.073723 0.015596,-0.00807 0.031193,0.086012 0.04679,0.077844 0.015596,-0.00817 0.031193,0.090187 0.04679,0.081918 0.015597,-0.00827 0.031193,0.09431 0.04679,0.08594 0.015597,-0.00837 0.031193,0.09838 0.04679,0.089909 0.015597,-0.00847 0.031193,0.1023923 0.04679,0.093821 0.015597,-0.00857 0.031193,0.1063465 0.04679,0.097674 0.015597,-0.00867 0.031193,0.1102394 0.04679,0.1014663 0.015597,-0.00877 0.031193,0.114069 0.04679,0.1051949 0.015597,-0.00887 0.031193,0.1178326 0.04679,0.1088577 0.015597,-0.00897 0.031193,0.1215281 0.04679,0.1124523 0.015597,-0.00907 0.031193,0.1251532 0.04679,0.1159765 0.015597,-0.00917 0.031193,0.1287056 0.04679,0.1194282 0.015597,-0.00928 0.031193,0.1321831 0.04679,0.1228047 0.015597,-0.00938 0.031193,0.135584 0.04679,0.1261048 0.015597,-0.00948 0.031193,0.1389056 0.04679,0.1293256 0.015597,-0.00958 0.031193,0.1421463 0.04679,0.1324656 0.015597,-0.00968 0.031193,0.145304 0.04679,0.1355224 0.015597,-0.00978 0.031193,0.148377 0.04679,0.1384946 0.015597,-0.00988 0.031193,0.1513632 0.04679,0.1413799 0.015597,-0.00998 0.031193,0.1542609 0.04679,0.1441768 0.015597,-0.010086 0.031193,0.1570683 0.04679,0.1468832 0.015597,-0.010185 0.031193,0.1597838 0.04679,0.1494979 0.015597,-0.010286 0.031193,0.1624055 0.04679,0.1520188 0.015597,-0.010387 0.031193,0.1649321 0.04679,0.1544445 0.015597,-0.010487 0.031193,0.167362 0.04679,0.1567736 0.015597,-0.010588 0.031193,0.1696937 0.04679,0.1590045 0.015597,-0.01069 0.031193,0.1719257 0.04679,0.1611357 0.015597,-0.01079 0.031193,0.174057 0.04679,0.1631661 0.015597,-0.010891 0.031193,0.1760861 0.04679,0.1650943 0.015596,-0.010991 0.031193,0.1780117 0.04679,0.1669192 0.015597,-0.011093 0.031193,0.1798327 0.04679,0.1686393 0.015597,-0.011194 0.031193,0.1815484 0.04679,0.1702541 0.015597,-0.011294 0.031193,0.1831572 0.04679,0.1717622 0.015596,-0.011396 0.031193,0.1846586 0.04679,0.1731627 0.015597,-0.011496 0.031193,0.1860514 0.04679,0.1744547 0.015597,-0.011597 0.031193,0.1873351 0.04679,0.1756375 0.015597,-0.011697 0.031193,0.1885088 0.04679,0.1767103 0.015597,-0.011798 0.031193,0.1895719 0.04679,0.1776726 0.015597,-0.0119 0.031193,0.1905236 0.04679,0.1785234 0.015597,-0.012 0.031193,0.1913636 0.04679,0.1792626 0.015597,-0.012101 0.031193,0.1920913 0.04679,0.1798894 0.015597,-0.012201 0.031193,0.1927063 0.04679,0.1804036 0.015597,-0.012303 0.031193,0.1932085 0.04679,0.1808049 0.015597,-0.012404 0.031193,0.1935973 0.04679,0.1810929 0.015597,-0.012504 0.031193,0.1938727 0.04679,0.1812675 0.015597,-0.012606 0.031193,0.1940346 0.04679,0.1813286 0.015597,-0.012706 0.031193,0.1940831 0.04679,0.1812762 0.015597,-0.012807 0.031193,0.1940177 0.04679,0.1811107 0.015597,-0.01291 0.031193,0.193839 0.04679,0.180831 0.015597,-0.01301 0.031193,0.193547 0.04679,0.180437 0.015597,-0.01311 0.031193,0.193143 0.04679,0.179932 0.015597,-0.0132 0.031193,0.192626 0.04679,0.179315 0.015597,-0.01331 0.031193,0.191995 0.04679,0.178583 0.015597,-0.01341 0.031193,0.191254 0.04679,0.177741 0.015597,-0.01351 0.031193,0.190402 0.04679,0.176788 0.015597,-0.01361 0.031193,0.189437 0.04679,0.175723 0.015597,-0.01371 0.031193,0.188365 0.04679,0.174549 0.015597,-0.01381 0.031193,0.187181 0.04679,0.173265 0.015597,-0.01391 0.031193,0.185889 0.04679,0.171873 0.015597,-0.01402 0.031193,0.18449 0.04679,0.170371 0.015597,-0.01412 0.031193,0.182986 0.04679,0.168767 0.015597,-0.01422 0.031193,0.181373 0.04679,0.167053 0.015596,-0.01432 0.031193,0.179657 0.04679,0.165237 0.015597,-0.01442 0.031193,0.177838 0.04679,0.163317 0.015597,-0.01452 0.031193,0.175916 0.04679,0.161294 0.015597,-0.01462 0.031193,0.173893 0.04679,0.15917 0.015596,-0.01472 0.031193,0.17177 0.04679,0.156947 0.015597,-0.01483 0.031193,0.169549 0.04679,0.154624 0.015597,-0.01493 0.031193,0.167233 0.04679,0.152207 0.015597,-0.01503 0.031193,0.16482 0.04679,0.149693 0.015597,-0.01513 0.031193,0.162313 0.04679,0.147086 0.015597,-0.01523 0.031193,0.159714 0.04679,0.144386 0.015597,-0.01533 0.031193,0.157024 0.04679,0.141595 0.015597,-0.01543 0.031193,0.154247 0.04679,0.138717 0.015597,-0.01552 0.031193,0.151383 0.04679,0.135752 0.015597,-0.01563 0.031193,0.148433 0.04679,0.132701 0.015597,-0.01573 0.031193,0.1454 0.04679,0.129568 0.015597,-0.01583 0.031193,0.142285 0.04679,0.126352 0.015597,-0.01593 0.031193,0.139093 0.04679,0.123059 0.015597,-0.01603 0.031193,0.135823 0.04679,0.119688 0.015597,-0.01613 0.031193,0.132477 0.04679,0.116241 0.015597,-0.01623 0.031193,0.129059 0.04679,0.112723 0.015597,-0.01633 0.031193,0.125571 0.04679,0.109133 0.015597,-0.01644 0.031193,0.122015 0.04679,0.105477 0.015597,-0.01654 0.031193,0.118391 0.04679,0.101752 0.015597,-0.01664 0.031193,0.114705 0.04679,0.09796 0.015597,-0.01674 0.031193,0.110958 0.04679,0.09412 0.015597,-0.01684 0.031193,0.107149 0.04679,0.09021 0.015597,-0.01694 0.031193,0.103286 0.04679,0.08625 0.015597,-0.01704 0.031193,0.09937 0.04679,0.08223 0.015597,-0.01715 0.031193,0.0954 0.04679,0.07816 0.015597,-0.01725 0.031193,0.09138 0.04679,0.07404 0.015597,-0.01735 0.031193,0.08732 0.04679,0.06987 0.015597,-0.01745 0.031193,0.08321 0.04679,0.06566 0.015597,-0.01755 0.031193,0.07906 0.04679,0.06142 0.015597,-0.01765 0.031193,0.07488 0.04679,0.05712 0.015597,-0.01775 0.031193,0.07065 0.04679,0.0528 0.015597,-0.01784 0.031193,0.06639 0.04679,0.04845 0.015597,-0.01794 0.031193,0.06211 0.04679,0.04406 0.015597,-0.01805 0.031193,0.05779 0.04679,0.03965 0.015597,-0.01815 0.031193,0.05346 0.04679,0.0352 0.015597,-0.01825 0.031193,0.04909 0.04679,0.03074 0.015597,-0.01835 0.031193,0.04471 0.04679,0.02626 0.015597,-0.01845 0.031193,0.04031 0.04679,0.02176 0.015597,-0.01855 0.031193,0.03591 0.04679,0.01725 0.015597,-0.01865 0.031193,0.03148 0.04679,0.01273 0.015597,-0.01876 0.031193,0.02706 0.04679,0.0082 0.015597,-0.01885 0.031193,0.02262 0.04679,0.0036 0.015597,-0.01896 0.031193,0.01819 0.04679,-8.76e-4 0.015597,-0.01906 0.031193,0.01375 0.04679,-0.0054 0.015597,-0.01916 0.031193,0.0093 0.04679,-0.0099 0.015596,-0.01926 0.031193,0.0049 0.04679,-0.01447 0.015597,-0.01936 0.031193,4.71e-4 0.04679,-0.01899 0.015597,-0.01946 0.031193,-0.0039 0.04679,-0.02349 0.015597,-0.01957 0.031193,-0.0083 0.04679,-0.02799 0.015597,-0.01967 0.031193,-0.0127 0.04679,-0.03247 0.015597,-0.01977 0.031193,-0.01705 0.04679,-0.03692 0.015597,-0.01987 0.031193,-0.02138 0.04679,-0.04135 0.015597,-0.01997 0.031193,-0.02568 0.04679,-0.04575 0.015597,-0.02007 0.031193,-0.02997 0.04679,-0.05013 0.0156,-0.02017 0.03119,-0.03421 0.04679,-0.05447 0.0156,-0.02027 0.0312,-0.03841 0.04679,-0.05879 0.0156,-0.02037 0.03119,-0.04259 0.04679,-0.06306 0.0156,-0.02048 0.03119,-0.04672 0.04679,-0.06729 0.0156,-0.02057 0.03119,-0.05082 0.04679,-0.07148 0.0156,-0.02067 0.03119,-0.05485 0.04679,-0.07563 0.0156,-0.02077 0.03119,-0.05886 0.04679,-0.07974 0.0156,-0.02087 0.03119,-0.06281 0.04679,-0.08378 0.0156,-0.02097 0.03119,-0.0667 0.04679,-0.08778 0.0156,-0.02107 0.03119,-0.07055 0.04679,-0.09173 0.0156,-0.02117 0.03119,-0.07433 0.04679,-0.0956 0.0156,-0.02128 0.03119,-0.07806 0.04679,-0.09943 0.0156,-0.02138 0.03119,-0.08172 0.04679,-0.103196 0.0156,-0.02148 0.03119,-0.08532 0.04679,-0.106896 0.0156,-0.02158 0.03119,-0.08885 0.04679,-0.110527 0.0156,-0.02168 0.03119,-0.0923 0.04679,-0.114089 0.0156,-0.02178 0.03119,-0.0957 0.04679,-0.11758 0.0156,-0.02188 0.03119,-0.09902 0.04679,-0.120998 0.0156,-0.02198 0.03119,-0.102254 0.04679,-0.124338 0.0156,-0.02209 0.03119,-0.105418 0.04679,-0.127603 0.0156,-0.02219 0.03119,-0.108501 0.04679,-0.130786 0.0156,-0.02229 0.03119,-0.111502 0.04679,-0.133889 0.0156,-0.02239 0.03119,-0.114418 0.04679,-0.136905 0.0156,-0.02249 0.03119,-0.11725 0.04679,-0.13984 0.0156,-0.02259 0.03119,-0.119993 0.04679,-0.142682 0.0156,-0.02269 0.03119,-0.122648 0.04679,-0.145438 0.0156,-0.0228 0.03119,-0.125213 0.04679,-0.148104 0.0156,-0.02289 0.03119,-0.127682 0.04679,-0.150673 0.0156,-0.023 0.03119,-0.130059 0.04679,-0.153152 0.0156,-0.02309 0.03119,-0.132339 0.04679,-0.155532 0.0156,-0.02319 0.03119,-0.134523 0.04679,-0.157817 0.0156,-0.02329 0.03119,-0.136606 0.04679,-0.160001 0.0156,-0.02339 0.03119,-0.138591 0.04679,-0.162086 0.0156,-0.02349 0.03119,-0.140473 0.04679,-0.16407 0.0156,-0.0236 0.03119,-0.142253 0.04679,-0.165951 0.0156,-0.0237 0.03119,-0.143928 0.04679,-0.167726 0.0156,-0.0238 0.03119,-0.145499 0.04679,-0.169399 0.0156,-0.0239 0.03119,-0.146963 0.04679,-0.170963 0.0156,-0.024 0.03119,-0.148322 0.04679,-0.172424 0.0156,-0.0241 0.03119,-0.14957 0.04679,-0.173772 0.0156,-0.0242 0.03119,-0.150712 0.04679,-0.175015 0.0156,-0.0243 0.03119,-0.151744 0.04679,-0.176147 0.0156,-0.0244 0.03119,-0.152664 0.04679,-0.177169 0.0156,-0.02451 0.03119,-0.153474 0.04679,-0.178079 0.0156,-0.02461 0.03119,-0.154173 0.04679,-0.178879 0.0156,-0.02471 0.03119,-0.154759 0.04679,-0.179566 0.0156,-0.02481 0.03119,-0.155233 0.04679,-0.180141 0.0156,-0.02491 0.03119,-0.155595 0.04679,-0.180603 0.0156,-0.02501 0.03119,-0.155842 0.04679,-0.180952 0.0156,-0.02511 0.03119,-0.1559773 0.04679,-0.1811877 0.0156,-0.02521 0.03119,-0.1559986 0.04679,-0.1813098 0.0156,-0.025311 0.03119,-0.1559064 0.04679,-0.1813185 0.0156,-0.025412 0.03119,-0.1557006 0.04679,-0.1812135 0.0156,-0.025513 0.03119,-0.1553814 0.04679,-0.1809952 0.0156,-0.025614 0.03119,-0.1549489 0.04679,-0.1806634 0.0156,-0.025714 0.03119,-0.1544032 0.04679,-0.1802186 0.0156,-0.025816 0.03119,-0.1537447 0.04679,-0.1796609 0.0156,-0.025916 0.03119,-0.1529735 0.04679,-0.1789907 0.0156,-0.026017 0.03119,-0.1520903 0.04679,-0.1782083 0.0156,-0.026119 0.03119,-0.1510956 0.04679,-0.1773144 0.0156,-0.026219 0.03119,-0.1499899 0.04679,-0.1763095 0.0156,-0.02632 0.03119,-0.1487736 0.04679,-0.1751942 0.0156,-0.02642 0.03119,-0.1474476 0.04679,-0.173969 0.0156,-0.026522 0.03119,-0.1460128 0.04679,-0.172635 0.0156,-0.026622 0.03119,-0.1444699 0.04679,-0.1711929 0.0156,-0.026723 0.03119,-0.1428198 0.04679,-0.1696436 0.0156,-0.026824 0.03119,-0.1410633 0.04679,-0.1679881 0.0156,-0.026925 0.03119,-0.1392017 0.04679,-0.1662273 0.0156,-0.027026 0.03119,-0.137236 0.04679,-0.1643624 0.0156,-0.027126 0.03119,-0.1351674 0.04679,-0.1623947 0.0156,-0.027227 0.03119,-0.1329971 0.04679,-0.1603252 0.0156,-0.027328 0.03119,-0.1307264 0.04679,-0.1581553 0.0156,-0.027429 0.03119,-0.1283566 0.04679,-0.1558865 0.0156,-0.02753 0.03119,-0.1258892 0.04679,-0.1535198 0.0156,-0.02763 0.03119,-0.1233259 0.04679,-0.1510572 0.0156,-0.027732 0.03119,-0.1206678 0.04679,-0.1485001 0.0156,-0.027832 0.03119,-0.1179166 0.04679,-0.1458496 0.0156,-0.027933 0.03119,-0.1150743 0.04679,-0.1431082 0.0156,-0.028034 0.03119,-0.1121422 0.04679,-0.140277 0.0156,-0.028135 0.03119,-0.1091222 0.04679,-0.1373579 0.0156,-0.028236 0.03119,-0.1060163 0.04679,-0.1343528 0.0156,-0.028336 0.03119,-0.1028263 0.04679,-0.1312636 0.0156,-0.028437 0.03119,-0.099554 0.04679,-0.1280922 0.0156,-0.028538 0.03119,-0.096202 0.04679,-0.1248407 0.0156,-0.028639 0.03119,-0.092771 0.04679,-0.1215108 0.0156,-0.02874 0.03119,-0.089264 0.04679,-0.1181049 0.0156,-0.028841 0.03119,-0.085683 0.04679,-0.1146252 0.0156,-0.028942 0.03119,-0.082031 0.04679,-0.1110735 0.0156,-0.029042 0.03119,-0.078309 0.04679,-0.1074523 0.0156,-0.029143 0.03119,-0.07452 0.04679,-0.1037638 0.0156,-0.029244 0.03119,-0.070665 0.04679,-0.1000102 0.0156,-0.029345 0.03119,-0.066748 0.04679,-0.096195 0.0156,-0.029446 0.03119,-0.062772 0.04679,-0.092318 0.0156,-0.029546 0.03119,-0.058736 0.04679,-0.088384 0.0156,-0.029648 0.03119,-0.054646 0.04679,-0.084394 0.0156,-0.029748 0.03119,-0.050503 0.04679,-0.080352 0.0156,-0.029849 0.03119,-0.046309 0.04679,-0.076259 0.0156,-0.02995 0.03119,-0.042068 0.04679,-0.072119 0.0156,-0.030051 0.03119,-0.037782 0.04679,-0.067933 0.0156,-0.030152 0.03119,-0.033453 0.04679,-0.063705 0.0156,-0.030252 0.03119,-0.029084 0.04679,-0.059437 0.0156,-0.030353 0.03119,-0.024679 0.04679,-0.055132 0.0156,-0.030454 0.03119,-0.020238 0.04679,-0.050793 0.0156,-0.030555 0.03119,-0.015765 0.04679,-0.046421 0.0156,-0.030656 0.03119,-0.011264 0.04679,-0.04202 0.0156,-0.030756 0.03119,-0.00673 0.04679,-0.037593 0.0156,-0.030858 0.03119,-0.00219 0.04679,-0.033143 0.0156,-0.030958 0.03119,0.00239 0.04679,-0.028671 0.0156,-0.031059 0.03119,0.00698 0.04679,-0.024182 0.0156,-0.03116 0.03119,0.011583 0.04679,-0.019678 0.0156,-0.031261 0.03119,0.016201 0.04679,-0.015162 0.0156,-0.031362 0.03119,0.020827 0.04679,-0.010636 0.0156,-0.031462 0.03119,0.025461 0.04679,-0.00611 0.0156,-0.031564 0.03119,0.030098 0.04679,-0.00157 0.0156,-0.031664 0.03119,0.034736 0.04679,0.00297 0.0156,-0.031765 0.03119,0.039373 0.04679,0.0075 0.0156,-0.031866 0.03119,0.044005 0.04679,0.012039 0.0156,-0.031967 0.03119,0.04863 0.04679,0.016562 0.0156,-0.032068 0.03119,0.053244 0.04679,0.021075 0.0156,-0.032168 0.03119,0.057844 0.04679,0.025575 0.0156,-0.032269 0.03119,0.062429 0.04679,0.030059 0.0156,-0.032371 0.03119,0.066995 0.04679,0.034524 0.0156,-0.032471 0.03119,0.071539 0.04679,0.038967 0.0156,-0.032572 0.03119,0.076059 0.04679,0.043386 0.0156,-0.032672 0.03119,0.080552 0.04679,0.047778 0.0156,-0.032774 0.03119,0.085015 0.04679,0.052141 0.0156,-0.032874 0.03119,0.089445 0.04679,0.05647 0.0156,-0.032975 0.03119,0.09384 0.04679,0.060764 0.0156,-0.033077 0.03119,0.098196 0.04679,0.06502 0.0156,-0.033177 0.03119,0.1025126 0.04679,0.069234 0.0156,-0.033278 0.03119,0.1067854 0.04679,0.073407 0.0156,-0.033378 0.03119,0.1110119 0.04679,0.077532 0.0156,-0.033479 0.03119,0.1151901 0.04679,0.08161 0.0156,-0.03358 0.03119,0.1193173 0.04679,0.085636 0.0156,-0.033681 0.03119,0.1233906 0.04679,0.089608 0.0156,-0.033782 0.03119,0.1274079 0.04679,0.093525 0.0156,-0.033882 0.03119,0.1313667 0.04679,0.097383 0.0156,-0.033984 0.03119,0.1352644 0.04679,0.1011798 0.0156,-0.034084 0.03119,0.1390989 0.04679,0.1049136 0.0156,-0.034185 0.03119,0.1428676 0.04679,0.1085814 0.0156,-0.034286 0.03119,0.1465683 0.04679,0.1121813 0.0156,-0.034387 0.03119,0.1501988 0.04679,0.1157109 0.0156,-0.034488 0.03119,0.1537567 0.04679,0.119168 0.0156,-0.034588 0.03119,0.1572402 0.04679,0.1225506 0.0156,-0.03469 0.03119,0.1606468 0.04679,0.1258564 0.0156,-0.03479 0.03119,0.1639746 0.04679,0.1290834 0.0156,-0.034891 0.03119,0.1672216 0.04679,0.1322295 0.0156,-0.034992 0.03119,0.1703857 0.04679,0.1352928 0.0156,-0.035093 0.03119,0.1734653 0.04679,0.1382715 0.0156,-0.035194 0.03119,0.1764581 0.04679,0.1411635 0.0156,-0.035294 0.03119,0.1793625 0.04679,0.1439671 0.0156,-0.035395 0.03119,0.1821768 0.04679,0.1466806 0.0156,-0.035496 0.03119,0.1848993 0.04679,0.1493022 0.0156,-0.035597 0.03119,0.1875283 0.04679,0.1518303 0.0156,-0.035698 0.03119,0.1900622 0.04679,0.1542634 0.0156,-0.035799 0.03119,0.1924994 0.04679,0.1565998 0.0156,-0.0359 0.03119,0.1948387 0.04679,0.1588382 0.0156,-0.036001 0.03119,0.1970784 0.04679,0.1609771 0.0156,-0.036101 0.03119,0.1992174 0.04679,0.1630152 0.0156,-0.036202 0.03119,0.2012542 0.04679,0.1649512 0.0156,-0.036303 0.03119,0.2031877 0.04679,0.166784 0.0156,-0.036404 0.03119,0.2050168 0.04679,0.1685122 0.0156,-0.036504 0.03119,0.2067404 0.04679,0.1701349 0.0156,-0.036606 0.03119,0.2083576 0.04679,0.1716512 0.0156,-0.036706 0.03119,0.2098671 0.04679,0.1730599 0.0156,-0.036807 0.03119,0.2112683 0.04679,0.1743602 0.0156,-0.036908 0.03119,0.2125603 0.04679,0.1755515 0.0156,-0.037009 0.03119,0.2137423 0.04679,0.1766325 0.0156,-0.03711 0.03119,0.2148139 0.04679,0.1776033 0.0156,-0.03721 0.03119,0.2157741 0.04679,0.1784626 0.0156,-0.037311 0.03119,0.2166226 0.04679,0.1792103 0.0156,-0.037412 0.03119,0.2173588 0.04679,0.1798457 0.0156,-0.037513 0.03119,0.2179824 0.04679,0.1803685 0.0156,-0.037614 0.03119,0.2184931 0.04679,0.1807784 0.0156,-0.037714 0.03119,0.2188905 0.04679,0.1810748 0.0156,-0.037816 0.03119,0.2191747 0.04679,0.1812583 0.0156,-0.037917 0.03119,0.2193452 0.04679,0.1813279 0.0156,-0.038017 0.03119,0.2194023 0.04679,0.1812842 0.0156,-0.038119 0.03119,0.2193463 0.04679,0.1811273 0.0156,-0.03822 0.03119,0.219176 0.04679,0.180856 0.0156,-0.03832 0.03119,0.218893 0.04679,0.180472 0.0156,-0.03842 0.03119,0.218496 0.04679,0.179975 0.0156,-0.03852 0.03119,0.217988 0.04679,0.179365 0.0156,-0.03862 0.03119,0.217366 0.04679,0.178643 0.0156,-0.03872 0.03119,0.216634 0.04679,0.17781 0.0156,-0.03883 0.03119,0.215788 0.04679,0.176864 0.0156,-0.03893 0.03119,0.214833 0.04679,0.175807 0.0156,-0.03903 0.03119,0.213769 0.04679,0.174643 0.0156,-0.03913 0.03119,0.212593 0.04679,0.173366 0.0156,-0.03923 0.03119,0.21131 0.04679,0.171982 0.0156,-0.03933 0.03119,0.209919 0.04679,0.17049 0.0156,-0.03943 0.03119,0.208422 0.04679,0.168892 0.0156,-0.03953 0.03119,0.206819 0.04679,0.167188 0.0156,-0.03963 0.03119,0.20511 0.04679,0.165379 0.0156,-0.03973 0.03119,0.203298 0.04679,0.163466 0.0156,-0.03983 0.03119,0.201384 0.04679,0.16145 0.0156,-0.03993 0.03119,0.199371 0.04679,0.159336 0.0156,-0.04003 0.03119,0.197254 0.04679,0.157119 0.0156,-0.04013 0.03119,0.195041 0.04679,0.154805 0.0156,-0.04023 0.03119,0.192732 0.04679,0.152394 0.0156,-0.04033 0.03119,0.190326 0.04679,0.149888 0.0156,-0.04044 0.03119,0.187826 0.04679,0.147287 0.0156,-0.04054 0.03119,0.185234 0.04679,0.144595 0.0156,-0.04064 0.03119,0.182551 0.04679,0.141811 0.0156,-0.04074 0.03119,0.17978 0.04679,0.13894 0.0156,-0.04084 0.03119,0.176921 0.04679,0.135979 0.0156,-0.04094 0.03119,0.173979 0.04679,0.132937 0.0156,-0.04104 0.03119,0.170952 0.04679,0.129809 0.0156,-0.04114 0.03119,0.167844 0.04679,0.1266 0.0156,-0.04125 0.03119,0.164657 0.04679,0.123311 0.0156,-0.04135 0.03119,0.161394 0.04679,0.119947 0.0156,-0.04145 0.03119,0.158053 0.04679,0.116507 0.0156,-0.04155 0.03119,0.15464 0.04679,0.112993 0.0156,-0.04165 0.03119,0.151158 0.04679,0.109409 0.0156,-0.04175 0.03119,0.147606 0.04679,0.105757 0.0156,-0.04185 0.03119,0.143988 0.04679,0.102038 0.0156,-0.04195 0.03119,0.140306 0.04679,0.09826 0.0156,-0.04206 0.03119,0.136562 0.04679,0.09441 0.0156,-0.04215 0.03119,0.13276 0.04679,0.09051 0.0156,-0.04226 0.03119,0.128901 0.04679,0.08655 0.0156,-0.04236 0.03119,0.124987 0.04679,0.08253 0.0156,-0.04245 0.03119,0.121023 0.04679,0.07847 0.0156,-0.04255 0.03119,0.117009 0.04679,0.07435 0.0156,-0.04265 0.03119,0.112948 0.04679,0.07019 0.0156,-0.04275 0.03119,0.108843 0.04679,0.06599 0.0156,-0.04286 0.03119,0.104697 0.04679,0.06174 0.0156,-0.04296 0.03119,0.100516 0.04679,0.05745 0.0156,-0.04306 0.03119,0.09629 0.04679,0.05313 0.0156,-0.04316 0.03119,0.09204 0.04679,0.04878 0.0156,-0.04326 0.03119,0.08776 0.04679,0.04439 0.0156,-0.04336 0.03119,0.08344 0.04679,0.03998 0.0156,-0.04346 0.03119,0.07911 0.04679,0.03554 0.0156,-0.04357 0.03119,0.07474 0.04679,0.03108 0.0156,-0.04367 0.03119,0.07036 0.04679,0.0266 0.0156,-0.04377 0.03119,0.06598 0.04679,0.02211 0.0156,-0.04387 0.03119,0.06156 0.04679,0.01759 0.0156,-0.04397 0.03119,0.05715 0.04679,0.01307 0.0156,-0.04407 0.03119,0.05271 0.04679,0.0085 0.0156,-0.04417 0.03119,0.04827 0.04679,0.0041 0.0156,-0.04427 0.03119,0.04384 0.04679,-5.31e-4 0.0156,-0.04436 0.03119,0.0394 0.04679,-0.0051 0.0156,-0.04448 0.03119,0.03497 0.04679,-0.0096 0.0156,-0.04457 0.03119,0.03054 0.04679,-0.01413 0.0156,-0.04467 0.03119,0.02613 0.04679,-0.01864 0.0156,-0.04477 0.03119,0.02172 0.04679,-0.02316 0.0156,-0.04487 0.03119,0.01733 0.04679,-0.02764 0.0156,-0.04497 0.03119,0.01295 0.04679,-0.03212 0.0156,-0.04507 0.03119,0.0086 0.04679,-0.03658 0.0156,-0.04518 0.03119,0.0043 0.04679,-0.04101 0.0156,-0.04528 0.03119,-3.9e-5 0.04679,-0.04542 0.0156,-0.04538 0.03119,-0.0044 0.04679,-0.0498 0.0156,-0.04548 0.03119,-0.0086 0.04679,-0.05415 0.0156,-0.04558 0.03119,-0.01278 0.04679,-0.05846 0.0156,-0.04568 0.03119,-0.01695 0.04679,-0.06273 0.0156,-0.04578 0.03119,-0.02109 0.04679,-0.06698 0.0156,-0.04588 0.03119,-0.02519 0.04679,-0.07117 0.0156,-0.04598 0.03119,-0.02923 0.04679,-0.07532 0.0156,-0.04609 0.03119,-0.03324 0.04679,-0.07942 0.0156,-0.04619 0.03119,-0.03719 0.04679,-0.08347 0.0156,-0.04629 0.03119,-0.04109 0.04679,-0.08747 0.0156,-0.04639 0.03119,-0.04494 0.04679,-0.09142 0.0156,-0.04649 0.03119,-0.04873 0.04679,-0.09531 0.0156,-0.04659 0.03119,-0.05246 0.04679,-0.09915 0.0156,-0.04669 0.03119,-0.05612 0.04679,-0.102914 0.0156,-0.0468 0.03119,-0.05973 0.04679,-0.106615 0.0156,-0.0469 0.03119,-0.06326 0.04679,-0.110254 0.0156,-0.047 0.03119,-0.06672 0.04679,-0.11382 0.0156,-0.04709 0.03119,-0.07013 0.04679,-0.117317 0.0156,-0.04719 0.03119,-0.07345 0.04679,-0.12074 0.0156,-0.04729 0.03119,-0.07669 0.04679,-0.124088 0.0156,-0.04739 0.03119,-0.07986 0.04679,-0.127357 0.0156,-0.04749 0.03119,-0.08295 0.04679,-0.130547 0.0156,-0.04759 0.03119,-0.08595 0.04679,-0.133654 0.0156,-0.0477 0.03119,-0.08888 0.04679,-0.13668 0.0156,-0.0478 0.03119,-0.09172 0.04679,-0.139618 0.0156,-0.0479 0.03119,-0.09447 0.04679,-0.14247 0.0156,-0.048 0.03119,-0.09713 0.04679,-0.145232 0.0156,-0.0481 0.03119,-0.0997 0.04679,-0.147904 0.0156,-0.0482 0.03119,-0.102178 0.04679,-0.150481 0.0156,-0.0483 0.03119,-0.104562 0.04679,-0.152966 0.0156,-0.04841 0.03119,-0.106851 0.04679,-0.155355 0.0156,-0.04851 0.03119,-0.10904 0.04679,-0.157646 0.0156,-0.04861 0.03119,-0.111132 0.04679,-0.159839 0.0156,-0.04871 0.03119,-0.113124 0.04679,-0.161931 0.0156,-0.04881 0.03119,-0.115014 0.04679,-0.163922 0.0156,-0.04891 0.03119,-0.116802 0.04679,-0.165811 0.0156,-0.04901 0.03119,-0.118485 0.04679,-0.167595 0.0156,-0.04911 0.03119,-0.120065 0.04679,-0.169275 0.0156,-0.04922 0.03119,-0.121538 0.04679,-0.170849 0.0156,-0.04932 0.03119,-0.122903 0.04679,-0.172316 0.0156,-0.04941 0.03119,-0.12416 0.04679,-0.173674 0.0156,-0.04951 0.03119,-0.12531 0.04679,-0.174924 0.0156,-0.04961 0.03119,-0.126349 0.04679,-0.176065 0.0156,-0.04971 0.03119,-0.127279 0.04679,-0.177095 0.0156,-0.04981 0.03119,-0.128097 0.04679,-0.178013 0.0156,-0.04991 0.03119,-0.128805 0.04679,-0.178822 0.0156,-0.05002 0.03119,-0.1294 0.04679,-0.179519 0.0156,-0.05012 0.03119,-0.129881 0.04679,-0.1801 0.0156,-0.05022 0.03119,-0.130252 0.04679,-0.180572 0.0156,-0.05032 0.03119,-0.130509 0.04679,-0.18093 0.0156,-0.050421 0.03119,-0.1306523 0.04679,-0.181174 0.0156,-0.050522 0.03119,-0.130682 0.04679,-0.1813044 0.0156,-0.050623 0.03119,-0.1305985 0.04679,-0.1813219 0.0156,-0.050723 0.03119,-0.1304013 0.04679,-0.1812255 0.0156,-0.050824 0.03119,-0.1300908 0.04679,-0.1810158 0.0156,-0.050925 0.03119,-0.1296668 0.04679,-0.1806926 0.0156,-0.051026 0.03119,-0.1291298 0.04679,-0.1802565 0.0156,-0.051127 0.03119,-0.1284797 0.04679,-0.1797073 0.0156,-0.051227 0.03119,-0.1277171 0.04679,-0.1790455 0.0156,-0.051329 0.03119,-0.1268426 0.04679,-0.1782718 0.0156,-0.051429 0.03119,-0.1258563 0.04679,-0.1773864 0.0156,-0.05153 0.03119,-0.1247589 0.04679,-0.1763898 0.0156,-0.05163 0.03119,-0.1235511 0.04679,-0.1752828 0.0156,-0.051732 0.03119,-0.1222335 0.04679,-0.1740661 0.0156,-0.051833 0.03119,-0.1208069 0.04679,-0.1727403 0.0156,-0.051933 0.03119,-0.1192722 0.04679,-0.1713065 0.0156,-0.052035 0.03119,-0.1176301 0.04679,-0.1697652 0.0156,-0.052135 0.03119,-0.1158817 0.04679,-0.1681177 0.0156,-0.052236 0.03119,-0.1140282 0.04679,-0.1663649 0.0156,-0.052337 0.03119,-0.1120704 0.04679,-0.164508 0.0156,-0.052437 0.03119,-0.1100095 0.04679,-0.162548 0.0156,-0.052539 0.03119,-0.1078468 0.04679,-0.1604862 0.0156,-0.052639 0.03119,-0.1055838 0.04679,-0.158324 0.0156,-0.05274 0.03119,-0.1032214 0.04679,-0.1560625 0.0156,-0.052841 0.03119,-0.1007616 0.04679,-0.1537033 0.0156,-0.052942 0.03119,-0.098206 0.04679,-0.1512479 0.0156,-0.053043 0.03119,-0.095555 0.04679,-0.1486978 0.0156,-0.053143 0.03119,-0.09281 0.04679,-0.1460546 0.0156,-0.053245 0.03119,-0.089975 0.04679,-0.14332 0.0156,-0.053345 0.03119,-0.087049 0.04679,-0.1404955 0.0156,-0.053446 0.03119,-0.084036 0.04679,-0.137583 0.0156,-0.053547 0.03119,-0.080937 0.04679,-0.1345845 0.0156,-0.053648 0.03119,-0.077753 0.04679,-0.1315016 0.0156,-0.053749 0.03119,-0.074487 0.04679,-0.1283363 0.0156,-0.053849 0.03119,-0.07114 0.04679,-0.1250908 0.0156,-0.05395 0.03119,-0.067716 0.04679,-0.1217669 0.0156,-0.054051 0.03119,-0.064215 0.04679,-0.1183667 0.0156,-0.054152 0.03119,-0.06064 0.04679,-0.1148924 0.0156,-0.054253 0.03119,-0.056993 0.04679,-0.1113462 0.0156,-0.054353 0.03119,-0.053276 0.04679,-0.1077302 0.0156,-0.054455 0.03119,-0.049492 0.04679,-0.1040468 0.0156,-0.054555 0.03119,-0.045643 0.04679,-0.1002978 0.0156,-0.054656 0.03119,-0.04173 0.04679,-0.096487 0.0156,-0.054758 0.03119,-0.037757 0.04679,-0.092615 0.0156,-0.054858 0.03119,-0.033727 0.04679,-0.088686 0.0156,-0.054959 0.03119,-0.029641 0.04679,-0.0847 0.0156,-0.055059 0.03119,-0.025501 0.04679,-0.080661 0.0156,-0.055161 0.03119,-0.021311 0.04679,-0.076572 0.0156,-0.055261 0.03119,-0.017073 0.04679,-0.072436 0.0156,-0.055362 0.03119,-0.012791 0.04679,-0.068253 0.0156,-0.055462 0.03119,-0.00847 0.04679,-0.064028 0.0156,-0.055564 0.03119,-0.0041 0.04679,-0.059763 0.0156,-0.055665 0.03119,3.044e-4 0.04679,-0.055461 0.0156,-0.055765 0.03119,0.00474 0.04679,-0.051124 0.0156,-0.055866 0.03119,0.00922 0.04679,-0.046754 0.0156,-0.055967 0.03119,0.013711 0.04679,-0.042356 0.0156,-0.056068 0.03119,0.018238 0.04679,-0.037931 0.0156,-0.056169 0.03119,0.022788 0.04679,-0.033483 0.0156,-0.056269 0.03119,0.027358 0.04679,-0.029013 0.0156,-0.056371 0.03119,0.031946 0.04679,-0.024525 0.0156,-0.056471 0.03119,0.036551 0.04679,-0.020021 0.0156,-0.056572 0.03119,0.041168 0.04679,-0.015506 0.0156,-0.056672 0.03119,0.045793 0.04679,-0.01098 0.0156,-0.056774 0.03119,0.050427 0.04679,-0.00645 0.0156,-0.056875 0.03119,0.055064 0.04679,-0.00191 0.0156,-0.056975 0.03119,0.059702 0.04679,0.00262 0.0156,-0.057076 0.03119,0.064339 0.04679,0.00716 0.0156,-0.057177 0.03119,0.068972 0.04679,0.011694 0.0156,-0.057278 0.03119,0.073597 0.04679,0.016218 0.0156,-0.057379 0.03119,0.078212 0.04679,0.020732 0.0156,-0.057479 0.03119,0.082813 0.04679,0.025234 0.0156,-0.057581 0.03119,0.0874 0.04679,0.029718 0.0156,-0.057681 0.03119,0.091968 0.04679,0.034185 0.0156,-0.057782 0.03119,0.096514 0.04679,0.03863 0.0156,-0.057884 0.03119,0.101035 0.04679,0.043051 0.0156,-0.057984 0.03119,0.1055301 0.04679,0.047445 0.0156,-0.058085 0.03119,0.1099952 0.04679,0.05181 0.0156,-0.058185 0.03119,0.1144279 0.04679,0.056142 0.0156,-0.058287 0.03119,0.1188256 0.04679,0.060439 0.0156,-0.058387 0.03119,0.1231853 0.04679,0.064697 0.0156,-0.058488 0.03119,0.1275046 0.04679,0.068916 0.0156,-0.05859 0.03119,0.1317806 0.04679,0.073091 0.0156,-0.05869 0.03119,0.136011 0.04679,0.07722 0.0156,-0.058791 0.03119,0.1401929 0.04679,0.081301 0.0156,-0.058891 0.03119,0.144324 0.04679,0.085332 0.0156,-0.058992 0.03119,0.1484016 0.04679,0.089308 0.0156,-0.059094 0.03119,0.1524233 0.04679,0.093229 0.0156,-0.059194 0.03119,0.1563864 0.04679,0.097092 0.0156,-0.059295 0.03119,0.160289 0.04679,0.1008933 0.0156,-0.059395 0.03119,0.1641283 0.04679,0.1046317 0.0156,-0.059497 0.03119,0.1679022 0.04679,0.1083047 0.0156,-0.059597 0.03119,0.1716081 0.04679,0.1119099 0.0156,-0.059698 0.03119,0.1752439 0.04679,0.1154449 0.0156,-0.0598 0.03119,0.1788075 0.04679,0.1189075 0.0156,-0.0599 0.03119,0.1822968 0.04679,0.122296 0.0156,-0.060001 0.03119,0.1857092 0.04679,0.1256076 0.0156,-0.060101 0.03119,0.1890431 0.04679,0.1288406 0.0156,-0.060203 0.03119,0.1922964 0.04679,0.131993 0.0156,-0.060303 0.03119,0.1954669 0.04679,0.1350627 0.0156,-0.060404 0.03119,0.1985529 0.04679,0.1380479 0.0156,-0.060505 0.03119,0.2015524 0.04679,0.1409466 0.0156,-0.060606 0.03119,0.2044635 0.04679,0.1437568 0.0156,-0.060707 0.03119,0.2072849 0.04679,0.1464774 0.0156,-0.060807 0.03119,0.2100144 0.04679,0.1491061 0.0156,-0.060908 0.03119,0.2126504 0.04679,0.1516412 0.0156,-0.061009 0.03119,0.2151917 0.04679,0.1540817 0.0156,-0.06111 0.03119,0.2176363 0.04679,0.1564254 0.0156,-0.061211 0.03119,0.2199831 0.04679,0.1586714 0.0156,-0.061311 0.03119,0.2222304 0.04679,0.1608179 0.0156,-0.061413 0.03119,0.2243771 0.04679,0.1628637 0.0156,-0.061514 0.03119,0.2264218 0.04679,0.1648075 0.0156,-0.061614 0.03119,0.2283633 0.04679,0.1666482 0.0156,-0.061716 0.03119,0.2302003 0.04679,0.1683844 0.0156,-0.061816 0.03119,0.2319319 0.04679,0.1700152 0.0156,-0.061917 0.03119,0.2335572 0.04679,0.1715396 0.0156,-0.062017 0.03119,0.2350749 0.04679,0.1729565 0.0156,-0.062119 0.03119,0.2364844 0.04679,0.1742652 0.0156,-0.062219 0.03119,0.2377847 0.04679,0.1754645 0.0156,-0.06232 0.03119,0.2389752 0.04679,0.1765543 0.0156,-0.062421 0.03119,0.2400551 0.04679,0.1775333 0.0156,-0.062522 0.03119,0.2410238 0.04679,0.1784012 0.0156,-0.062623 0.03119,0.2418808 0.04679,0.1791573 0.0156,-0.062723 0.03119,0.2426256 0.04679,0.1798012 0.0156,-0.062824 0.03119,0.2432579 0.04679,0.1803327 0.0156,-0.062925 0.03119,0.2437771 0.04679,0.1807512 0.0156,-0.063026 0.03119,0.2441832 0.04679,0.1810563 0.0156,-0.063127 0.03119,0.244476 0.04679,0.1812483 0.0156,-0.063227 0.03119,0.2446552 0.04679,0.1813266 0.0156,-0.063329 0.03119,0.2447208 0.04679,0.1812914 0.0156,-0.063429 0.03119,0.2446721 0.04679,0.1811421 0.0156,-0.06353 0.03119,0.244512 0.04679,0.180881 0.0156,-0.06364 0.03119,0.244237 0.04679,0.180505 0.0156,-0.06374 0.03119,0.24385 0.04679,0.180017 0.0156,-0.06384 0.03119,0.243349 0.04679,0.179415 0.0156,-0.06394 0.03119,0.242737 0.04679,0.178702 0.0156,-0.06403 0.03119,0.242012 0.04679,0.177877 0.0156,-0.06413 0.03119,0.241176 0.04679,0.17694 0.0156,-0.06423 0.03119,0.240229 0.04679,0.175892 0.0156,-0.06433 0.03119,0.239171 0.04679,0.174734 0.0156,-0.06444 0.03119,0.238006 0.04679,0.173467 0.0156,-0.06454 0.03119,0.236731 0.04679,0.172092 0.0156,-0.06464 0.03119,0.235348 0.04679,0.170607 0.0156,-0.06474 0.03119,0.233859 0.04679,0.169017 0.0156,-0.06484 0.03119,0.232264 0.04679,0.167322 0.0156,-0.06494 0.03119,0.230562 0.04679,0.165519 0.0156,-0.06504 0.03119,0.22876 0.04679,0.163615 0.0156,-0.06514 0.03119,0.226853 0.04679,0.161609 0.0156,-0.06525 0.03119,0.224845 0.04679,0.159499 0.0156,-0.06535 0.03119,0.222738 0.04679,0.157292 0.0156,-0.06545 0.03119,0.220532 0.04679,0.154985 0.0156,-0.06555 0.03119,0.218228 0.04679,0.152581 0.0156,-0.06565 0.03119,0.21583 0.04679,0.150082 0.0156,-0.06575 0.03119,0.213338 0.04679,0.147487 0.0156,-0.06585 0.03119,0.210754 0.04679,0.144804 0.0156,-0.06596 0.03119,0.208077 0.04679,0.142025 0.0156,-0.06605 0.03119,0.205314 0.04679,0.139162 0.0156,-0.06616 0.03119,0.202461 0.04679,0.136207 0.0156,-0.06625 0.03119,0.199525 0.04679,0.133171 0.0156,-0.06635 0.03119,0.196505 0.04679,0.13005 0.0156,-0.06645 0.03119,0.193403 0.04679,0.126847 0.0156,-0.06655 0.03119,0.19022 0.04679,0.123564 0.0156,-0.06665 0.03119,0.186963 0.04679,0.120206 0.0156,-0.06676 0.03119,0.183629 0.04679,0.116771 0.0156,-0.06686 0.03119,0.180222 0.04679,0.113262 0.0156,-0.06696 0.03119,0.176745 0.04679,0.109686 0.0156,-0.06706 0.03119,0.173197 0.04679,0.106036 0.0156,-0.06716 0.03119,0.169584 0.04679,0.102323 0.0156,-0.06726 0.03119,0.165907 0.04679,0.09854 0.0156,-0.06736 0.03119,0.162169 0.04679,0.0947 0.0156,-0.06746 0.03119,0.158371 0.04679,0.0908 0.0156,-0.06756 0.03119,0.154516 0.04679,0.08686 0.0156,-0.06767 0.03119,0.150606 0.04679,0.08285 0.0156,-0.06777 0.03119,0.146645 0.04679,0.07877 0.0156,-0.06787 0.03119,0.142634 0.04679,0.07466 0.0156,-0.06797 0.03119,0.138577 0.04679,0.07051 0.0156,-0.06807 0.03119,0.134476 0.04679,0.06631 0.0156,-0.06817 0.03119,0.130333 0.04679,0.06207 0.0156,-0.06827 0.03119,0.126152 0.04679,0.05778 0.0156,-0.06838 0.03119,0.121932 0.04679,0.05346 0.0156,-0.06848 0.03119,0.117682 0.04679,0.0491 0.0156,-0.06857 0.03119,0.1134 0.04679,0.04473 0.0156,-0.06867 0.03119,0.10909 0.04679,0.04031 0.0156,-0.06877 0.03119,0.104754 0.04679,0.03588 0.0156,-0.06887 0.03119,0.100395 0.04679,0.03142 0.0156,-0.06897 0.03119,0.09602 0.04679,0.02694 0.0156,-0.06907 0.03119,0.09163 0.04679,0.02245 0.0156,-0.06918 0.03119,0.08721 0.04679,0.01793 0.0156,-0.06928 0.03119,0.0828 0.04679,0.01342 0.0156,-0.06938 0.03119,0.07837 0.04679,0.0089 0.0156,-0.06948 0.03119,0.07393 0.04679,0.0044 0.0156,-0.06958 0.03119,0.0695 0.04679,-1.84e-4 0.0156,-0.06968 0.03119,0.06506 0.04679,-0.0048 0.0156,-0.06978 0.03119,0.06063 0.04679,-0.0092 0.0156,-0.06988 0.03119,0.0562 0.04679,-0.01378 0.0156,-0.06999 0.03119,0.05178 0.04679,-0.01831 0.0156,-0.07009 0.03119,0.04737 0.04679,-0.02281 0.0156,-0.07019 0.03119,0.04298 0.04679,-0.02731 0.0156,-0.07029 0.03119,0.0386 0.04679,-0.03179 0.0156,-0.07039 0.03119,0.03425 0.04679,-0.03624 0.0156,-0.07049 0.03119,0.02991 0.04679,-0.04068 0.0156,-0.07059 0.03119,0.02561 0.04679,-0.04508 0.0156,-0.07069 0.03119,0.02133 0.04679,-0.04947 0.0156,-0.07079 0.03119,0.01707 0.04679,-0.05381 0.0156,-0.0709 0.03119,0.01286 0.04679,-0.05813 0.0156,-0.071 0.03119,0.0087 0.04679,-0.06241 0.0156,-0.07109 0.03119,0.0046 0.04679,-0.06665 0.0156,-0.07119 0.03119,4.46e-4 0.04679,-0.07084 0.0156,-0.07129 0.03119,-0.0036 0.04679,-0.07501 0.0156,-0.07139 0.03119,-0.0076 0.04679,-0.07911 0.0156,-0.07149 0.03119,-0.01157 0.04679,-0.08317 0.0156,-0.0716 0.03119,-0.01547 0.04679,-0.08718 0.0156,-0.0717 0.03119,-0.01933 0.04679,-0.09113 0.0156,-0.0718 0.03119,-0.02312 0.04679,-0.09502 0.0156,-0.0719 0.03119,-0.02686 0.04679,-0.09886 0.0156,-0.072 0.03119,-0.03053 0.04679,-0.102628 0.0156,-0.0721 0.03119,-0.03414 0.04679,-0.106337 0.0156,-0.0722 0.03119,-0.03767 0.04679,-0.109978 0.0156,-0.0723 0.03119,-0.04114 0.04679,-0.113553 0.0156,-0.0724 0.03119,-0.04455 0.04679,-0.117053 0.0156,-0.07251 0.03119,-0.04788 0.04679,-0.120482 0.0156,-0.07261 0.03119,-0.05113 0.04679,-0.123836 0.0156,-0.07271 0.03119,-0.0543 0.04679,-0.127111 0.0156,-0.07281 0.03119,-0.0574 0.04679,-0.130307 0.0156,-0.07291 0.03119,-0.06042 0.04679,-0.133421 0.0156,-0.07301 0.03119,-0.06334 0.04679,-0.136453 0.0156,-0.07311 0.03119,-0.06619 0.04679,-0.139397 0.0156,-0.07321 0.03119,-0.06894 0.04679,-0.142256 0.0156,-0.07332 0.03119,-0.07162 0.04679,-0.145025 0.0156,-0.07341 0.03119,-0.07419 0.04679,-0.147703 0.0156,-0.07352 0.03119,-0.07668 0.04679,-0.15029 0.0156,-0.07361 0.03119,-0.07907 0.04679,-0.152779 0.0156,-0.07371 0.03119,-0.08136 0.04679,-0.155177 0.0156,-0.07381 0.03119,-0.08356 0.04679,-0.157476 0.0156,-0.07391 0.03119,-0.08566 0.04679,-0.159675 0.0156,-0.07401 0.03119,-0.08766 0.04679,-0.161775 0.0156,-0.07412 0.03119,-0.08956 0.04679,-0.163775 0.0156,-0.07422 0.03119,-0.09135 0.04679,-0.165671 0.0156,-0.07432 0.03119,-0.09304 0.04679,-0.167463 0.0156,-0.07442 0.03119,-0.09463 0.04679,-0.16915 0.0156,-0.07452 0.03119,-0.09611 0.04679,-0.170734 0.0156,-0.07462 0.03119,-0.09749 0.04679,-0.172207 0.0156,-0.07472 0.03119,-0.09875 0.04679,-0.173574 0.0156,-0.07483 0.03119,-0.09991 0.04679,-0.174833 0.0156,-0.07493 0.03119,-0.100952 0.04679,-0.175982 0.0156,-0.07503 0.03119,-0.101894 0.04679,-0.177021 0.0156,-0.07513 0.03119,-0.10272 0.04679,-0.177947 0.0156,-0.07523 0.03119,-0.103436 0.04679,-0.178765 0.0156,-0.07533 0.03119,-0.104039 0.04679,-0.179468 0.0156,-0.07543 0.03119,-0.104531 0.04679,-0.180061 0.0156,-0.07554 0.03119,-0.104909 0.04679,-0.18054 0.0156,-0.07564 0.03119,-0.105175 0.04679,-0.180906 0.0156,-0.075732 0.03119,-0.1053261 0.04679,-0.1811591 0.0156,-0.075833 0.03119,-0.1053648 0.04679,-0.1812985 0.0156,-0.075933 0.03119,-0.1052899 0.04679,-0.1813245 0.0156,-0.076035 0.03119,-0.1051014 0.04679,-0.1812369 0.0156,-0.076136 0.03119,-0.1047994 0.04679,-0.1810357 0.0156,-0.076236 0.03119,-0.1043841 0.04679,-0.1807213 0.0156,-0.076337 0.03119,-0.1038555 0.04679,-0.1802935 0.0156,-0.076437 0.03119,-0.1032142 0.04679,-0.179753 0.0156,-0.076539 0.03119,-0.1024603 0.04679,-0.1790998 0.0156,-0.07664 0.03119,-0.1015941 0.04679,-0.1783346 0.0156,-0.07674 0.03119,-0.1006168 0.04679,-0.1774577 0.0156,-0.076842 0.03119,-0.099527 0.04679,-0.1764695 0.0156,-0.076942 0.03119,-0.098328 0.04679,-0.1753709 0.0156,-0.077043 0.03119,-0.097019 0.04679,-0.1741626 0.0156,-0.077143 0.03119,-0.0956 0.04679,-0.172845 0.0156,-0.077245 0.03119,-0.094074 0.04679,-0.1714193 0.0156,-0.077346 0.03119,-0.09244 0.04679,-0.1698863 0.0156,-0.077446 0.03119,-0.0907 0.04679,-0.1682467 0.0156,-0.077547 0.03119,-0.088854 0.04679,-0.166502 0.0156,-0.077648 0.03119,-0.086904 0.04679,-0.1646529 0.0156,-0.077749 0.03119,-0.084851 0.04679,-0.1627007 0.0156,-0.07785 0.03119,-0.082696 0.04679,-0.1606466 0.0156,-0.07795 0.03119,-0.080441 0.04679,-0.158492 0.0156,-0.078052 0.03119,-0.078086 0.04679,-0.156238 0.0156,-0.078152 0.03119,-0.075633 0.04679,-0.1538862 0.0156,-0.078253 0.03119,-0.073085 0.04679,-0.1514382 0.0156,-0.078353 0.03119,-0.070441 0.04679,-0.1488951 0.0156,-0.078455 0.03119,-0.067703 0.04679,-0.1462589 0.0156,-0.078556 0.03119,-0.064875 0.04679,-0.1435312 0.0156,-0.078656 0.03119,-0.061956 0.04679,-0.1407134 0.0156,-0.078758 0.03119,-0.05895 0.04679,-0.1378077 0.0156,-0.078858 0.03119,-0.055856 0.04679,-0.1348156 0.0156,-0.078959 0.03119,-0.05268 0.04679,-0.1317391 0.0156,-0.07906 0.03119,-0.04942 0.04679,-0.12858 0.0156,-0.079161 0.03119,-0.046079 0.04679,-0.1253406 0.0156,-0.079262 0.03119,-0.04266 0.04679,-0.1220225 0.0156,-0.079362 0.03119,-0.039165 0.04679,-0.118628 0.0156,-0.079463 0.03119,-0.035595 0.04679,-0.1151593 0.0156,-0.079564 0.03119,-0.031953 0.04679,-0.1116185 0.0156,-0.079665 0.03119,-0.028242 0.04679,-0.1080077 0.0156,-0.079766 0.03119,-0.024463 0.04679,-0.1043294 0.0156,-0.079866 0.03119,-0.020619 0.04679,-0.1005854 0.0156,-0.079968 0.03119,-0.016711 0.04679,-0.096779 0.0156,-0.080068 0.03119,-0.012742 0.04679,-0.092912 0.0156,-0.080169 0.03119,-0.00872 0.04679,-0.088986 0.0156,-0.080269 0.03119,-0.00464 0.04679,-0.085005 0.0156,-0.080371 0.03119,-4.99e-4 0.04679,-0.08097 0.0156,-0.080472 0.03119,0.00369 0.04679,-0.076885 0.0156,-0.080572 0.03119,0.00792 0.04679,-0.072752 0.0156,-0.080674 0.03119,0.012201 0.04679,-0.068573 0.0156,-0.080774 0.03119,0.016523 0.04679,-0.064351 0.0156,-0.080875 0.03119,0.020886 0.04679,-0.060089 0.0156,-0.080976 0.03119,0.025287 0.04679,-0.055789 0.0156,-0.081077 0.03119,0.029722 0.04679,-0.051455 0.0156,-0.081178 0.03119,0.03419 0.04679,-0.047088 0.0156,-0.081278 0.03119,0.038688 0.04679,-0.042692 0.0156,-0.081379 0.03119,0.043211 0.04679,-0.038268 0.0156,-0.08148 0.03119,0.047759 0.04679,-0.033822 0.0156,-0.081581 0.03119,0.052328 0.04679,-0.029353 0.0156,-0.081682 0.03119,0.056916 0.04679,-0.024867 0.0156,-0.081782 0.03119,0.061519 0.04679,-0.020364 0.0156,-0.081884 0.03119,0.066135 0.04679,-0.015849 0.0156,-0.081984 0.03119,0.070761 0.04679,-0.011325 0.0156,-0.082085 0.03119,0.075394 0.04679,-0.00679 0.0156,-0.082186 0.03119,0.08003 0.04679,-0.00226 0.0156,-0.082287 0.03119,0.084668 0.04679,0.00228 0.0156,-0.082388 0.03119,0.089306 0.04679,0.00682 0.0156,-0.082488 0.03119,0.093938 0.04679,0.011349 0.0156,-0.082589 0.03119,0.098564 0.04679,0.015874 0.0156,-0.08269 0.03119,0.10318 0.04679,0.020389 0.0156,-0.082791 0.03119,0.1077829 0.04679,0.024891 0.0156,-0.082892 0.03119,0.1123704 0.04679,0.029378 0.0156,-0.082992 0.03119,0.1169393 0.04679,0.033846 0.0156,-0.083094 0.03119,0.1214872 0.04679,0.038293 0.0156,-0.083194 0.03119,0.1260109 0.04679,0.042716 0.0156,-0.083295 0.03119,0.1305079 0.04679,0.047112 0.0156,-0.083395 0.03119,0.1349755 0.04679,0.051478 0.0156,-0.083497 0.03119,0.1394109 0.04679,0.055813 0.0156,-0.083598 0.03119,0.1438113 0.04679,0.060112 0.0156,-0.083698 0.03119,0.148174 0.04679,0.064375 0.0156,-0.0838 0.03119,0.1524964 0.04679,0.068596 0.0156,-0.083901 0.03119,0.1567757 0.04679,0.072775 0.0156,-0.084001 0.03119,0.1610097 0.04679,0.076907 0.0156,-0.084102 0.03119,0.1651953 0.04679,0.080992 0.0156,-0.084203 0.03119,0.1693304 0.04679,0.085027 0.0156,-0.084304 0.03119,0.1734121 0.04679,0.089008 0.0156,-0.084404 0.03119,0.1774382 0.04679,0.092933 0.0156,-0.084505 0.03119,0.1814061 0.04679,0.0968 0.0156,-0.084607 0.03119,0.1853132 0.04679,0.1006067 0.0156,-0.084707 0.03119,0.1891573 0.04679,0.1043495 0.0156,-0.084808 0.03119,0.1929363 0.04679,0.1080277 0.0156,-0.084908 0.03119,0.1966474 0.04679,0.1116379 0.0156,-0.08501 0.03119,0.2002887 0.04679,0.1151785 0.0156,-0.08511 0.03119,0.2038579 0.04679,0.1186466 0.0156,-0.085211 0.03119,0.2073528 0.04679,0.1220409 0.0156,-0.085312 0.03119,0.2107712 0.04679,0.1253583 0.0156,-0.085413 0.03119,0.2141112 0.04679,0.1285975 0.0156,-0.085514 0.03119,0.2173706 0.04679,0.1317561 0.0156,-0.085614 0.03119,0.2205475 0.04679,0.1348321 0.0156,-0.085715 0.03119,0.22364 0.04679,0.1378237 0.0156,-0.085816 0.03119,0.2266461 0.04679,0.1407291 0.0156,-0.085917 0.03119,0.2295641 0.04679,0.1435463 0.0156,-0.086018 0.03119,0.2323922 0.04679,0.1462735 0.0156,-0.086119 0.03119,0.2351289 0.04679,0.1489093 0.0156,-0.08622 0.03119,0.2377721 0.04679,0.1514516 0.0156,-0.08632 0.03119,0.2403206 0.04679,0.1538994 0.0156,-0.086421 0.03119,0.2427727 0.04679,0.1562506 0.0156,-0.086522 0.03119,0.2451269 0.04679,0.1585039 0.0156,-0.086623 0.03119,0.247382 0.04679,0.1606582 0.0156,-0.086724 0.03119,0.2495362 0.04679,0.1627116 0.0156,-0.086824 0.03119,0.2515886 0.04679,0.1646632 0.0156,-0.086926 0.03119,0.253538 0.04679,0.1665117 0.0156,-0.087026 0.03119,0.2553832 0.04679,0.1682561 0.0156,-0.087127 0.03119,0.2571228 0.04679,0.1698948 0.0156,-0.087227 0.03119,0.2587563 0.04679,0.1714274 0.0156,-0.087329 0.03119,0.2602822 0.04679,0.1728525 0.0156,-0.08743 0.03119,0.2616999 0.04679,0.1741694 0.0156,-0.08753 0.03119,0.2630085 0.04679,0.1753772 0.0156,-0.087631 0.03119,0.2642074 0.04679,0.1764753 0.0156,-0.087732 0.03119,0.2652957 0.04679,0.1774626 0.0156,-0.087833 0.03119,0.266273 0.04679,0.1783391 0.0156,-0.087934 0.03119,0.2671384 0.04679,0.1791037 0.0156,-0.088035 0.03119,0.2678919 0.04679,0.1797563 0.0156,-0.088136 0.03119,0.2685326 0.04679,0.1802962 0.0156,-0.088236 0.03119,0.2690605 0.04679,0.1807232 0.0156,-0.088337 0.03119,0.2694753 0.04679,0.1810372 0.0156,-0.088439 0.03119,0.2697765 0.04679,0.1812376 0.0156,-0.088539 0.03119,0.2699644 0.04679,0.1813247 0.0156,-0.08864 0.03119,0.2700387 0.04679,0.181298 0.0156,-0.08874 0.03119,0.2699997 0.04679,0.1811587 0.0156,-0.088842 0.03119,0.269847 0.04679,0.180904 0.0156,-0.08894 0.03119,0.269581 0.04679,0.180538 0.0156,-0.08904 0.03119,0.269202 0.04679,0.180058 0.0156,-0.08915 0.03119,0.26871 0.04679,0.179465 0.0156,-0.08925 0.03119,0.268106 0.04679,0.178761 0.0156,-0.08935 0.03119,0.267389 0.04679,0.177942 0.0156,-0.08945 0.03119,0.266563 0.04679,0.177016 0.0156,-0.08955 0.03119,0.265624 0.04679,0.175975 0.0156,-0.08965 0.03119,0.264575 0.04679,0.174826 0.0156,-0.08975 0.03119,0.263418 0.04679,0.173568 0.0156,-0.08985 0.03119,0.26215 0.04679,0.1722 0.0156,-0.08995 0.03119,0.260776 0.04679,0.170724 0.0156,-0.09006 0.03119,0.259294 0.04679,0.169142 0.0156,-0.09016 0.03119,0.257707 0.04679,0.167454 0.0156,-0.09026 0.03119,0.256015 0.04679,0.165661 0.0156,-0.09035 0.03119,0.254219 0.04679,0.163764 0.0156,-0.09045 0.03119,0.25232 0.04679,0.161764 0.0156,-0.09055 0.03119,0.25032 0.04679,0.159664 0.0156,-0.09065 0.03119,0.24822 0.04679,0.157462 0.0156,-0.09075 0.03119,0.246023 0.04679,0.155164 0.0156,-0.09086 0.03119,0.243727 0.04679,0.152768 0.0156,-0.09096 0.03119,0.241335 0.04679,0.150274 0.0156,-0.09106 0.03119,0.23885 0.04679,0.147689 0.0156,-0.09116 0.03119,0.236272 0.04679,0.14501 0.0156,-0.09126 0.03119,0.233603 0.04679,0.142241 0.0156,-0.09136 0.03119,0.230845 0.04679,0.139382 0.0156,-0.09146 0.03119,0.228 0.04679,0.136436 0.0156,-0.09156 0.03119,0.22507 0.04679,0.133405 0.0156,-0.09167 0.03119,0.222056 0.04679,0.13029 0.0156,-0.09177 0.03119,0.21896 0.04679,0.127093 0.0156,-0.09187 0.03119,0.215785 0.04679,0.123817 0.0156,-0.09197 0.03119,0.212532 0.04679,0.120464 0.0156,-0.09207 0.03119,0.209204 0.04679,0.117035 0.0156,-0.09217 0.03119,0.205803 0.04679,0.113532 0.0156,-0.09227 0.03119,0.202331 0.04679,0.109959 0.0156,-0.09238 0.03119,0.198789 0.04679,0.106317 0.0156,-0.09248 0.03119,0.195181 0.04679,0.102608 0.0156,-0.09257 0.03119,0.191509 0.04679,0.09883 0.0156,-0.09267 0.03119,0.187774 0.04679,0.095 0.0156,-0.09277 0.03119,0.18398 0.04679,0.09111 0.0156,-0.09287 0.03119,0.18013 0.04679,0.08715 0.0156,-0.09297 0.03119,0.176224 0.04679,0.08315 0.0156,-0.09307 0.03119,0.172267 0.04679,0.07909 0.0156,-0.09317 0.03119,0.168261 0.04679,0.07498 0.0156,-0.09328 0.03119,0.164206 0.04679,0.07082 0.0156,-0.09338 0.03119,0.160108 0.04679,0.06663 0.0156,-0.09348 0.03119,0.155969 0.04679,0.06239 0.0156,-0.09358 0.03119,0.151789 0.04679,0.05811 0.0156,-0.09368 0.03119,0.147574 0.04679,0.05379 0.0156,-0.09378 0.03119,0.143324 0.04679,0.04944 0.0156,-0.09388 0.03119,0.139045 0.04679,0.04506 0.0156,-0.09398 0.03119,0.134736 0.04679,0.04065 0.0156,-0.09409 0.03119,0.130403 0.04679,0.03621 0.0156,-0.09419 0.03119,0.126047 0.04679,0.03176 0.0156,-0.09429 0.03119,0.121671 0.04679,0.02728 0.0156,-0.09439 0.03119,0.117277 0.04679,0.02278 0.0156,-0.09449 0.03119,0.112869 0.04679,0.01828 0.0156,-0.09459 0.03119,0.108451 0.04679,0.01376 0.0156,-0.09469 0.03119,0.104023 0.04679,0.0092 0.0156,-0.0948 0.03119,0.09959 0.04679,0.0047 0.0156,-0.0949 0.03119,0.09515 0.04679,1.6e-4 0.0156,-0.09499 0.03119,0.09071 0.04679,-0.0044 0.0156,-0.09509 0.03119,0.08628 0.04679,-0.0089 0.0156,-0.09519 0.03119,0.08185 0.04679,-0.01344 0.0156,-0.09529 0.03119,0.07744 0.04679,-0.01797 0.0156,-0.09539 0.03119,0.07302 0.04679,-0.02247 0.0156,-0.09549 0.03119,0.06863 0.04679,-0.02697 0.0156,-0.09559 0.03119,0.06425 0.04679,-0.03144 0.0156,-0.0957 0.03119,0.0599 0.04679,-0.0359 0.0156,-0.0958 0.03119,0.05557 0.04679,-0.04034 0.0156,-0.0959 0.03119,0.05125 0.04679,-0.04475 0.0156,-0.096 0.03119,0.04697 0.04679,-0.04913 0.0156,-0.0961 0.03119,0.04271 0.04679,-0.05349 0.0156,-0.0962 0.03119,0.0385 0.04679,-0.0578 0.0156,-0.0963 0.03119,0.03432 0.04679,-0.06209 0.0156,-0.09641 0.03119,0.03018 0.04679,-0.06633 0.0156,-0.09651 0.03119,0.02608 0.04679,-0.07053 0.0156,-0.09661 0.03119,0.02201 0.04679,-0.07469 0.0156,-0.09671 0.03119,0.01801 0.04679,-0.0788 0.0156,-0.09681 0.03119,0.01405 0.04679,-0.08287 0.0156,-0.09691 0.03119,0.01014 0.04679,-0.08688 0.0156,-0.09701 0.03119,0.0063 0.04679,-0.09083 0.0156,-0.09711 0.03119,0.0025 0.04679,-0.09472 0.0156,-0.09722 0.03119,-0.0012 0.04679,-0.09856 0.0156,-0.09732 0.03119,-0.005 0.04679,-0.102344 0.0156,-0.09741 0.03119,-0.0085 0.04679,-0.106056 0.0156,-0.09752 0.03119,-0.01209 0.04679,-0.109704 0.0156,-0.09761 0.03119,-0.01556 0.04679,-0.113283 0.0156,-0.09771 0.03119,-0.01898 0.04679,-0.116789 0.0156,-0.09781 0.03119,-0.02231 0.04679,-0.120225 0.0156,-0.09791 0.03119,-0.02556 0.04679,-0.123583 0.0156,-0.09802 0.03119,-0.02875 0.04679,-0.126863 0.0156,-0.09812 0.03119,-0.03185 0.04679,-0.130067 0.0156,-0.09822 0.03119,-0.03487 0.04679,-0.133188 0.0156,-0.09832 0.03119,-0.0378 0.04679,-0.136224 0.0156,-0.09842 0.03119,-0.04066 0.04679,-0.139177 0.0156,-0.09852 0.03119,-0.04342 0.04679,-0.142042 0.0156,-0.09862 0.03119,-0.0461 0.04679,-0.144817 0.0156,-0.09872 0.03119,-0.04868 0.04679,-0.147503 0.0156,-0.09882 0.03119,-0.05117 0.04679,-0.150095 0.0156,-0.09893 0.03119,-0.05357 0.04679,-0.152595 0.0156,-0.09903 0.03119,-0.05587 0.04679,-0.154997 0.0156,-0.09913 0.03119,-0.05808 0.04679,-0.157304 0.0156,-0.09923 0.03119,-0.06018 0.04679,-0.159512 0.0156,-0.09933 0.03119,-0.06219 0.04679,-0.161619 0.0156,-0.09943 0.03119,-0.06409 0.04679,-0.163626 0.0156,-0.09953 0.03119,-0.0659 0.04679,-0.16553 0.0156,-0.09964 0.03119,-0.06759 0.04679,-0.167331 0.0156,-0.09974 0.03119,-0.0692 0.04679,-0.169026 0.0156,-0.09983 0.03119,-0.07068 0.04679,-0.170616 0.0156,-0.09993 0.03119,-0.07206 0.04679,-0.172099 0.0156,-0.10003 0.03119,-0.07334 0.04679,-0.173475 0.0156,-0.100131 0.03119,-0.0745 0.04679,-0.17474 0.0156,-0.100233 0.03119,-0.07557 0.04679,-0.175899 0.0156,-0.100334 0.03119,-0.07651 0.04679,-0.176945 0.0156,-0.100435 0.03119,-0.07734 0.04679,-0.177881 0.0156,-0.100537 0.03119,-0.07807 0.04679,-0.178706 0.0156,-0.100638 0.03119,-0.07868 0.04679,-0.179419"
     style="fill:none;stroke:#75f400;stroke-width:1;stroke-linecap:butt;stroke-linejoin:round;stroke-miterlimit:4;stroke-opacity:1;stroke-dasharray:none"
     inkscape:connector-curvature="0" />
  <path
     style="fill:none;stroke:#63fa00;stroke-width:1;stroke-linecap:butt;stroke-linejoin:miter;stroke-opacity:1;stroke-miterlimit:4;stroke-dasharray:none"
     d="M 0.5884163,20.466667 9.5072218,20.333333 9.5723227,31.8 20.899856,31.666667 l 0.195303,-11.8 11.653038,0 0.0651,11.866666 9.569813,0 L 42.187808,19.6 47.39587,19.53333"
     id="path6761"
     inkscape:connector-curvature="0" />
  <path
     style="fill:none;stroke:#54ff00;stroke-width:1;stroke-linecap:butt;stroke-linejoin:miter;stroke-miterlimit:4;stroke-opacity:1;stroke-dasharray:none"
     d="M 0.73453628,46.533333 9.3136579,34.066667 17.437826,46.4 26.341914,33.666667 34.401089,45.533333 42.135298,33.6 l 5.264461,7.333333"
     id="path6763"
     inkscape:connector-curvature="0" />
</svg>
